# xmcd CD database file
#
# Track frame offsets:
#	150
#	30074
#	69123
#	81432
#	97824
#	116449
#	135307
#	163101
#	185704
#	212910
#	240377
#	258104
#	273456
#	287001
#	306994
#	322150
#	341445
#
# Disc length: 4685 seconds
#
# Revision: 1
# Processed by: cddbd v1.5.2PL0 Copyright (c) Steve Scherf et al.
# Submitted via: CDex 1.70beta2
#
DISCID=e8124b11
DTITLE=MALTA - LIVE IN JAPAN-Jazz Up,Back Up,Dress Up, 
DYEAR=2011
DGENRE=Jazz
TTITLE0=High-up-sky (Malta) 
TTITLE1=Killer Joe (Benny Golson) 
TTITLE2=Freedom Jazz Dance (Eddie Harris) 
TTITLE3=Four Brothers (Jimmy Giuffre)
TTITLE4=1937 (Malta)
TTITLE5=Moose The Mooche (Charlie Parker)
TTITLE6=Swing High Pressure (Malta)
TTITLE7=Hamp Jump Shuffle (Malta)
TTITLE8=When You’re Smiling (Larry Shay)
TTITLE9=Recado Bossa (Djalma aferreira)
TTITLE10=Vermeer~フェルメールの恋心~ (Malta)
TTITLE11=Fly Me To The Moon (Bart Howard)
TTITLE12=Crispy-Crispy (Malta)
TTITLE13=Hot Zipper Blues (Malta)
TTITLE14=Jazz Up,Back Up,Dress Up, (Malta)
TTITLE15=Five Pennies ~Bonus track~ (Sylvia Fine)
TTITLE16=Together ~Bonus track~ (Malta)
EXTD=YEAR: 2011
EXTT0=
EXTT1=
EXTT2=
EXTT3=
EXTT4=
EXTT5=
EXTT6=
EXTT7=
EXTT8=
EXTT9=
EXTT10=
EXTT11=
EXTT12=
EXTT13=
EXTT14=
EXTT15=
EXTT16=
PLAYORDER=
